<?xml version="1.0" encoding="utf-8"?>
<!-- Generator: Adobe Illustrator 23.1.1, SVG Export Plug-In . SVG Version: 6.00 Build 0)  -->
<svg version="1.1"
	 id="图层_1" xmlns:cc="http://creativecommons.org/ns#" xmlns:dc="http://purl.org/dc/elements/1.1/" xmlns:inkscape="http://www.inkscape.org/namespaces/inkscape" xmlns:rdf="http://www.w3.org/1999/02/22-rdf-syntax-ns#" xmlns:sodipodi="http://sodipodi.sourceforge.net/DTD/sodipodi-0.dtd" xmlns:svg="http://www.w3.org/2000/svg"
	 xmlns="http://www.w3.org/2000/svg" xmlns:xlink="http://www.w3.org/1999/xlink" x="0px" y="0px" viewBox="0 0 24 30"
	 style="enable-background:new 0 0 24 30;" xml:space="preserve">
<style type="text/css">
	.st0{fill:#BBEEFC;}
</style>
<g transform="translate(0,-1028.3622)">
	<path class="st0" d="M12,1031.9c-0.3,0-0.5,0.2-0.5,0.5v2.8l-2.1-2.1c-0.1-0.1-0.2-0.2-0.4-0.2c-0.3,0-0.5,0.2-0.5,0.5
		c0,0.1,0.1,0.3,0.2,0.4l2.9,2.9v2.9L9,1038l-1-3.9c-0.1-0.2-0.3-0.4-0.5-0.4c-0.3,0-0.5,0.3-0.5,0.5c0,0,0,0.1,0,0.1l0.8,2.9
		l-2.4-1.4c-0.1-0.1-0.2-0.1-0.3-0.1c-0.3,0-0.5,0.3-0.5,0.5c0,0.2,0.1,0.3,0.3,0.4l2.4,1.4l-2.9,0.8c-0.3,0.1-0.4,0.3-0.4,0.6
		c0.1,0.3,0.3,0.4,0.6,0.4l3.9-1l2.5,1.5l-2.5,1.5l-3.9-1c0,0-0.1,0-0.1,0c-0.3,0-0.5,0.2-0.5,0.5c0,0.2,0.2,0.4,0.4,0.5l2.9,0.8
		l-2.4,1.4c-0.2,0.1-0.3,0.4-0.2,0.7s0.4,0.3,0.7,0.2c0,0,0,0,0,0l2.4-1.4l-0.8,2.9c-0.1,0.3,0.1,0.5,0.3,0.6
		c0.3,0.1,0.5-0.1,0.6-0.3c0,0,0,0,0,0l1-3.9l2.5-1.5v2.9l-2.9,2.9c-0.2,0.2-0.2,0.5,0,0.7s0.5,0.2,0.7,0c0,0,0,0,0,0l2.1-2.1v2.8
		c0,0.3,0.2,0.5,0.5,0.5s0.5-0.2,0.5-0.5c0,0,0,0,0,0v-2.8l2.1,2.1c0.2,0.2,0.5,0.2,0.7,0c0.2-0.2,0.2-0.5,0-0.7c0,0,0,0,0,0
		l-2.9-2.9v-2.9l2.5,1.5l1,3.9c0.1,0.3,0.3,0.4,0.6,0.4s0.4-0.3,0.4-0.6l-0.8-2.9l2.4,1.4c0.2,0.1,0.5,0.1,0.7-0.2
		c0.1-0.2,0.1-0.5-0.2-0.7c0,0,0,0,0,0l-2.4-1.4l2.9-0.8c0.3-0.1,0.4-0.3,0.4-0.6c-0.1-0.2-0.3-0.4-0.5-0.4v0c0,0-0.1,0-0.1,0
		l-3.9,1l-2.5-1.5l2.5-1.5l3.9,1c0.3,0.1,0.5-0.1,0.6-0.4s-0.1-0.5-0.4-0.6c0,0,0,0,0,0l-2.9-0.8l2.4-1.4c0.2-0.1,0.3-0.4,0.2-0.7
		c-0.1-0.2-0.3-0.3-0.5-0.3v0c-0.1,0-0.2,0-0.2,0.1l-2.4,1.4l0.8-2.9c0.1-0.3-0.1-0.5-0.3-0.6c-0.1,0-0.1,0-0.2,0
		c-0.2,0-0.4,0.2-0.5,0.4l-1,3.9l-2.5,1.5v-2.9l2.9-2.9c0.2-0.2,0.2-0.5,0-0.7s-0.5-0.2-0.7,0c0,0,0,0,0,0l-2.1,2.1v-2.8
		C12.5,1032.1,12.3,1031.9,12,1031.9C12,1031.9,12,1031.9,12,1031.9z"/>
</g>
</svg>
